<svg width="16" height="16" viewBox="0 0 16 16" fill="none" xmlns="http://www.w3.org/2000/svg">
<path d="M15.5662 0.175083C15.8818 0.393788 16.0474 0.771834 15.9881 1.14988L13.988 14.1472C13.9412 14.4502 13.7568 14.7158 13.488 14.8658C13.2193 15.0158 12.8974 15.0345 12.613 14.9158L8.87546 13.363L6.7348 15.6781C6.45667 15.9812 6.01917 16.0812 5.63479 15.9312C5.25041 15.7812 5.0004 15.4094 5.0004 14.997V12.3851C5.0004 12.2601 5.04728 12.1414 5.13165 12.0476L10.3692 6.33631C10.5505 6.13947 10.5442 5.83641 10.3567 5.64895C10.1692 5.46149 9.8661 5.44899 9.66922 5.62708L3.31288 11.2728L0.553459 9.89182C0.222204 9.72623 0.00970063 9.39505 0.000325491 9.02637C-0.00904965 8.6577 0.184703 8.31402 0.503458 8.12968L14.5037 0.131342C14.8381 -0.0592432 15.2506 -0.0404971 15.5662 0.175083Z" fill="white"/>
</svg>
