<svg width="14" height="15" viewBox="0 0 14 15" fill="none" xmlns="http://www.w3.org/2000/svg">
<path d="M9.62312 0.5C9.27046 0.5 8.9506 0.713281 8.8139 1.04141C8.67721 1.36953 8.75376 1.74414 9.00254 1.9957L10.1343 3.125L5.50596 7.75703C5.16423 8.09883 5.16423 8.65391 5.50596 8.9957C5.84769 9.3375 6.40266 9.3375 6.74439 8.9957L11.3728 4.36367L12.5046 5.4957C12.7561 5.74727 13.1306 5.82109 13.4587 5.68438C13.7868 5.54766 14 5.23047 14 4.875V1.375C14 0.891016 13.6091 0.5 13.1252 0.5L9.62312 0.5ZM2.18707 1.375C0.978715 1.375 0 2.35391 0 3.5625V12.3125C0 13.5211 0.978715 14.5 2.18707 14.5H10.9354C12.1437 14.5 13.1224 13.5211 13.1224 12.3125V9.25C13.1224 8.76602 12.7315 8.375 12.2476 8.375C11.7637 8.375 11.3728 8.76602 11.3728 9.25V12.3125C11.3728 12.5531 11.1759 12.75 10.9354 12.75H2.18707C1.94649 12.75 1.74966 12.5531 1.74966 12.3125V3.5625C1.74966 3.32187 1.94649 3.125 2.18707 3.125H5.24898C5.73286 3.125 6.1238 2.73398 6.1238 2.25C6.1238 1.76602 5.73286 1.375 5.24898 1.375H2.18707Z" fill="#3AAA64"/>
</svg>
