<svg width="20" height="20" viewBox="0 0 20 17" fill="none" xmlns="http://www.w3.org/2000/svg">
<path d="M7.75417 11.5288C7.75417 12.3996 7.3 13.8246 6.225 13.8246C5.15 13.8246 4.69583 12.3996 4.69583 11.5288C4.69583 10.658 5.15 9.23307 6.225 9.23307C7.3 9.23307 7.75417 10.658 7.75417 11.5288ZM20 9.42473C20 10.7539 19.8667 12.1622 19.2708 13.3829C17.6917 16.5745 13.35 16.4995 10.2417 16.4995C7.08333 16.4995 2.48333 16.612 0.841667 13.3829C0.233333 12.1747 0 10.7539 0 9.42473C0 7.67895 0.579167 6.029 1.72917 4.69154C1.5125 4.03323 1.40833 3.34158 1.40833 2.65827C1.40833 1.76246 1.6125 1.31248 2.01667 0.5C3.90417 0.5 5.1125 0.874989 6.55 1.99996C7.75833 1.71246 9 1.5833 10.2458 1.5833C11.3708 1.5833 12.5042 1.70413 13.5958 1.96662C15.0125 0.854156 16.2208 0.5 18.0875 0.5C18.4958 1.31248 18.6958 1.76246 18.6958 2.65827C18.6958 3.34158 18.5875 4.02073 18.375 4.66654C19.5208 6.0165 20 7.67895 20 9.42473ZM17.3208 11.5288C17.3208 9.69973 16.2083 8.08727 14.2583 8.08727C13.4708 8.08727 12.7167 8.22894 11.925 8.33727C11.3042 8.4331 10.6833 8.4706 10.0458 8.4706C9.4125 8.4706 8.79167 8.4331 8.16667 8.33727C7.3875 8.22894 6.625 8.08727 5.83333 8.08727C3.88333 8.08727 2.77083 9.69973 2.77083 11.5288C2.77083 15.1871 6.12083 15.7495 9.0375 15.7495H11.0458C13.975 15.7495 17.3208 15.1912 17.3208 11.5288ZM13.8792 9.23307C12.8042 9.23307 12.35 10.658 12.35 11.5288C12.35 12.3996 12.8042 13.8246 13.8792 13.8246C14.9542 13.8246 15.4083 12.3996 15.4083 11.5288C15.4083 10.658 14.9542 9.23307 13.8792 9.23307Z" fill="white"/>
</svg>
