<svg width="20" height="17" viewBox="0 0 20 17" fill="none" xmlns="http://www.w3.org/2000/svg">
<path d="M10.0002 0.5C9.74712 0.5 9.49713 0.54999 9.25963 0.6464L0.494219 4.26355C0.197351 4.38852 0.000480997 4.70989 0.000480997 5.07053C0.000480997 5.43118 0.197351 5.75254 0.494219 5.87752L2.30355 6.6238C1.79106 7.54505 1.50044 8.63412 1.50044 9.78032V10.7837C1.50044 11.7978 1.16295 12.844 0.803587 13.6688C0.600467 14.133 0.369222 14.5901 0.100479 15.0114C0.000480998 15.165 -0.0276433 15.3649 0.0286053 15.5471C0.084854 15.7292 0.216101 15.8648 0.378597 15.9113L2.37855 16.4826C2.5098 16.5219 2.65042 16.4933 2.76604 16.4112C2.88166 16.329 2.96291 16.1934 2.98791 16.0398C3.25665 14.5115 3.12228 13.1404 2.92229 12.1584C2.82229 11.6514 2.68792 11.1336 2.50042 10.6587V9.78032C2.50042 8.70196 2.81916 7.68431 3.37227 6.87018C3.77539 6.31672 4.29725 5.87038 4.90974 5.59543L9.81587 3.39229C10.0721 3.27803 10.3627 3.42086 10.4627 3.71366C10.5627 4.00646 10.4377 4.33853 10.1815 4.4528L5.27535 6.65594C4.88786 6.8309 4.54725 7.09871 4.26913 7.42721L9.25651 9.48395C9.494 9.58036 9.744 9.63035 9.99712 9.63035C10.2502 9.63035 10.5002 9.58036 10.7377 9.48395L19.5063 5.87752C19.8031 5.75611 20 5.43118 20 5.07053C20 4.70989 19.8031 4.38852 19.5063 4.26355L10.7408 0.6464C10.5034 0.54999 10.2534 0.5 10.0002 0.5ZM4.00039 13.9259C4.00039 15.1864 6.68782 16.4969 10.0002 16.4969C13.3127 16.4969 16.0001 15.1864 16.0001 13.9259L15.522 8.7341L11.0783 10.5695C10.7315 10.7123 10.3659 10.7837 10.0002 10.7837C9.63462 10.7837 9.26588 10.7123 8.92214 10.5695L4.4785 8.7341L4.00039 13.9259Z" fill="#778492"/>
</svg>
