<svg width="16" height="16" viewBox="0 0 16 16" fill="none" xmlns="http://www.w3.org/2000/svg">
<path d="M8 1.71429C4.68437 1.71429 1.95 4.55 1.55 8.21429C1.84375 8.07857 2.1625 8 2.5 8C3.32812 8 4 8.76786 4 9.71429V14.2857C4 15.2321 3.32812 16 2.5 16C1.11875 16 0 14.7214 0 13.1429V12.5714V10.8571V9.14286C0 4.09286 3.58125 0 8 0C12.4187 0 16 4.09286 16 9.14286V10.8571V12.5714V13.1429C16 14.7214 14.8813 16 13.5 16C12.6719 16 12 15.2321 12 14.2857V9.71429C12 8.76786 12.6719 8 13.5 8C13.8375 8 14.1562 8.075 14.45 8.21429C14.05 4.55 11.3156 1.71429 8 1.71429Z" fill="#434343"/>
</svg>
