<svg width="20" height="20" viewBox="0 0 20 20" fill="none" xmlns="http://www.w3.org/2000/svg">
<path d="M16.8781 10.3483C18.374 8.66641 18.374 5.94268 16.8781 4.26081C15.5544 2.77243 13.4682 2.57894 11.9459 3.80239L11.9035 3.83513C11.5223 4.14174 11.4349 4.73709 11.7076 5.16277C11.9803 5.58844 12.5098 5.68965 12.8884 5.38305L12.9308 5.3503C13.7806 4.66863 14.9428 4.77579 15.6788 5.60631C16.5128 6.54398 16.5128 8.06213 15.6788 8.99981L12.7084 12.3457C11.8744 13.2834 10.5242 13.2834 9.69025 12.3457C8.9516 11.5152 8.85629 10.2084 9.46256 9.25581L9.49168 9.20818C9.76437 8.77953 9.67436 8.18418 9.29577 7.88055C8.91718 7.57692 8.38504 7.67515 8.115 8.10083L8.08588 8.14846C6.99512 9.85712 7.1672 12.2028 8.49094 13.6912C9.98676 15.373 12.4092 15.373 13.905 13.6912L16.8781 10.3483ZM3.12187 9.65172C1.62604 11.3336 1.62604 14.0573 3.12187 15.7392C4.4456 17.2276 6.53181 17.4211 8.05411 16.1976L8.09647 16.1649C8.4777 15.8583 8.56507 15.2629 8.29238 14.8372C8.01969 14.4116 7.4902 14.3103 7.11161 14.617L7.06925 14.6497C6.21941 15.3314 5.05717 15.2242 4.32117 14.3937C3.48722 13.453 3.48722 11.9349 4.32117 10.9972L7.29164 7.65431C8.12559 6.71664 9.4758 6.71664 10.3098 7.65431C11.0484 8.48483 11.1437 9.79163 10.5374 10.7472L10.5083 10.7948C10.2356 11.2234 10.3256 11.8188 10.7042 12.1224C11.0828 12.4261 11.615 12.3278 11.885 11.9021L11.9141 11.8545C13.0049 10.1429 12.8328 7.7972 11.5091 6.30882C10.0132 4.62695 7.5908 4.62695 6.09498 6.30882L3.12187 9.65172Z" fill="#CCD1D6"/>
</svg>
