<svg width="20" height="20" viewBox="0 0 20 20" fill="none" xmlns="http://www.w3.org/2000/svg">
<path d="M10.7406 17.6405C12.3438 15.629 16 10.7539 16 8.01557C16 4.69447 13.3125 2 10 2C6.6875 2 4 4.69447 4 8.01557C4 10.7539 7.65625 15.629 9.25938 17.6405C9.64375 18.1198 10.3562 18.1198 10.7406 17.6405ZM10 6.01038C10.5304 6.01038 11.0391 6.22164 11.4142 6.59768C11.7893 6.97373 12 7.48376 12 8.01557C12 8.54738 11.7893 9.0574 11.4142 9.43345C11.0391 9.8095 10.5304 10.0208 10 10.0208C9.46957 10.0208 8.96086 9.8095 8.58579 9.43345C8.21071 9.0574 8 8.54738 8 8.01557C8 7.48376 8.21071 6.97373 8.58579 6.59768C8.96086 6.22164 9.46957 6.01038 10 6.01038Z" fill="#CCD1D6"/>
</svg>
